<svg width="32" height="32" fill="none" xmlns="http://www.w3.org/2000/svg"><path d="M7.771 23.313c4.292 4.292 11.25 4.292 15.543 0 4.291-4.291 4.291-11.25 0-15.542-4.292-4.292-11.25-4.292-15.543 0-4.292 4.292-4.292 11.25 0 15.542z" fill="#B4DFFB"/><path fill-rule="evenodd" clip-rule="evenodd" d="M20.366 5.895s2.125 1.056 2.946 1.877c.822.822 1.877 2.947 1.877 2.947l-14.47 14.47s-2.122-1.1-2.923-1.9c-.8-.801-1.9-2.923-1.9-2.923l14.47-14.47z" fill="#ECECEC"/><path d="M7.771 23.313c4.292 4.292 11.25 4.292 15.543 0 4.291-4.291 4.291-11.25 0-15.542-4.292-4.292-11.25-4.292-15.543 0-4.292 4.292-4.292 11.25 0 15.542z" stroke="#264CAF" stroke-width="1.5" stroke-linecap="round"/><path d="M20.366 5.895L5.893 20.368" stroke="#264CAF" stroke-width="1.5" stroke-linecap="square"/><path d="M21.438 6.967L6.965 21.44M24.117 9.647L9.644 24.12" stroke="#264CAF" stroke-width="1.5" stroke-linecap="square" stroke-dasharray="4.15 4.15"/><path d="M25.19 10.719L10.715 25.192" stroke="#264CAF" stroke-width="1.5" stroke-linecap="square"/></svg>