<svg width="30" height="29" fill="none" xmlns="http://www.w3.org/2000/svg"><path d="M9.375 24.167c1.036 0 1.875-.812 1.875-1.813 0-1-.84-1.812-1.875-1.812-1.036 0-1.875.811-1.875 1.813 0 1 .84 1.812 1.875 1.812zm11.25 0c1.035 0 1.875-.812 1.875-1.813 0-1-.84-1.812-1.875-1.812-1.035 0-1.875.811-1.875 1.813 0 1 .84 1.812 1.875 1.812zM3.75 6.042h2.5L7 9.667m0 0l1.75 8.458h12.5l2.5-8.458H7z" fill="#FFB444"/><path d="M3.75 6.042h2.5L7 9.667m0 0l1.75 8.458h12.5l2.5-8.458H7z" stroke="#FFB444" stroke-width="2" stroke-linecap="round" stroke-linejoin="round"/></svg>