<svg width="20" height="20" fill="none" xmlns="http://www.w3.org/2000/svg"><g clip-path="url(#clip0_510_1238)"><path fill-rule="evenodd" clip-rule="evenodd" d="M15.198 4.948a1.612 1.612 0 012.223 2.336L6.346 17.85l-2.854.375 1.17-3.272L15.197 4.95h.001zm3.725-1.322a3.612 3.612 0 00-5.102-.128L3.111 13.666a1 1 0 00-.254.388l-1.8 5.037A1 1 0 002.13 20.42l4.8-.63a1 1 0 00.56-.267L18.8 8.732a3.612 3.612 0 00.123-5.106zM12 18.428a1 1 0 000 2h6a1 1 0 100-2h-6z" fill="#666"/></g><defs><clipPath id="clip0_510_1238"><path fill="#fff" d="M0 0h20v20H0z"/></clipPath></defs></svg>