<svg width="43" height="48" fill="none" xmlns="http://www.w3.org/2000/svg"><path d="M37.017 16.87s-1.736 2.305-4.865 5.212c-1.957-5.439-5.876-11.888-12.626-19.41 0 0-.134 9.377-4.383 18.906-3.175-3.44-4.82-6.291-4.82-6.291-14.822 21.242 2.39 31.42 11.808 29.762 12.048-2.12 21.62-9.802 14.886-28.178z" fill="#FF9D33"/><path d="M32.713 34.191c.636-2.468.874-5.58.354-9.343 0 0-1.235 1.502-3.447 3.534-1.35-3.618-4.025-7.859-8.695-12.891 0 0-.116 6.232-3.12 12.686-2.183-2.258-3.31-4.2-3.31-4.2-2.15 5.232-2.668 9.179-2.213 12.168-1.772-.33-2.896-.632-2.896-.632 4.326 7.948 10.541 8.782 13.173 8.319 4.708-.83 9.243-3.055 12.77-10.601-.013-.07-1.003.39-2.616.96z" fill="#FFCE31"/><path d="M14.87 33.405s2.401 2.29 3.746 1.411c0 0 2.002-4.85 5.591-7.98 0 0 .34 6.794 1.516 7.8 1.527 1.373 4.335-2.548 4.335-2.548.695 3.947-2.733 9.62-6.61 10.302-3.74.658-9.897-2.684-8.579-8.985z" fill="#FFDF85"/></svg>