<svg width="23" height="23" fill="none" xmlns="http://www.w3.org/2000/svg"><path d="M22.617 7.245c-2.377-2.147-4.754-4.332-7.13-6.478C11.998 6.057 6.095 10.772.498 14.183A33.929 33.929 0 010 16.292C2.453 18.515 4.907 20.777 7.36 23c5.788-3.182 11.922-7.705 15.64-12.842-.115-.958-.268-1.916-.383-2.913z" fill="#699635"/><path d="M7.82 20.163C5.405 17.94 2.99 15.717.575 13.532 6.593 10.12 11.653 5.482 15.372 0c2.415 2.223 4.83 4.408 7.245 6.632-3.719 5.481-8.779 10.12-14.797 13.531z" fill="#83BF4F"/><path d="M7.207 18.706c-1.61-1.456-3.22-2.951-4.83-4.408.115-.076.191-.115.306-.191.307-.192.384-.537.115-.805l-.23-.23c4.869-2.99 9.085-6.824 12.382-11.27l.23.23c.268.23.652.191.882-.077.076-.077.115-.192.191-.268 1.61 1.456 3.22 2.951 4.83 4.408-.076.077-.115.192-.191.268a.76.76 0 00.076.997l.23.23c-3.296 4.408-7.513 8.242-12.381 11.232l-.23-.23c-.269-.23-.729-.269-1.074-.077-.115.076-.191.115-.306.191zm-3.795-4.37c1.303 1.189 2.606 2.377 3.948 3.604a2.118 2.118 0 011.533.115c4.447-2.837 8.319-6.364 11.424-10.465a1.549 1.549 0 01-.115-1.418 3806.64 3806.64 0 01-3.949-3.604c-.345.307-.843.345-1.265.115-3.105 4.14-6.976 7.667-11.423 10.504.23.383.192.843-.153 1.15z" fill="#699635"/><path d="M6.9 13.531c.422-.153.882-.115 1.188.154-.191.153-.421.306-.613.46-.077-.077-.268-.077-.345 0-.115.077-.153.191-.038.268.076.077.268.077.383 0 .46-.306 1.112-.345 1.457 0 .268.268.306.652.038.958.077.077.153.115.23.192-.192.115-.383.268-.575.383-.077-.076-.153-.153-.23-.191-.422.115-.882.076-1.15-.192.23-.153.422-.268.652-.421.076.076.268.076.383 0 .115-.077.115-.192.038-.269-.076-.076-.23-.076-.345 0a1.332 1.332 0 01-.92.23 1.298 1.298 0 01-.575-.23c-.268-.268-.268-.613-.038-.92-.077-.038-.115-.115-.192-.191.192-.116.384-.269.575-.384-.038.038.039.077.077.153zm8.893-8.203c.345-.23.767-.23 1.035.038l-.46.575a.203.203 0 00-.306.039c-.077.115-.077.268 0 .345.076.076.23.076.306-.039.345-.421.92-.498 1.265-.191.269.268.345.69.192 1.073.077.077.153.115.23.192-.153.191-.268.345-.422.536a1.014 1.014 0 00-.23-.191c-.345.191-.728.191-.996-.077.153-.192.345-.383.498-.575.077.077.23.077.307-.038.076-.115.076-.269 0-.345a.203.203 0 00-.307.038c-.192.23-.498.383-.767.383a.916.916 0 01-.536-.191c-.269-.269-.345-.652-.192-1.035-.077-.039-.115-.115-.192-.192a2.85 2.85 0 00.422-.537c0 .077.077.115.153.192zm-1.15 7.513c-1.226 1.112-3.296 1.074-4.485 0-1.188-1.111-1.111-2.836.115-3.948 1.227-1.112 3.144-1.227 4.332-.115a2.703 2.703 0 01.038 4.063z" fill="#699635"/><path d="M7.59 8.625l7.245 6.632a32.12 32.12 0 002.377-2.185L10.005 6.44A68.74 68.74 0 017.59 8.625z" fill="#FFDD7D"/><path d="M14.873 18.17a57.626 57.626 0 002.377-1.917v-3.22a42.185 42.185 0 01-2.377 2.185v2.952z" fill="#DBB471"/><path d="M3.872 8.702c.421-.153.766-.383 1.111-.652.345-.268.652-.536.997-.843.345-.268.69-.575 1.073-.767.384-.23.882-.345 1.304-.268a2.643 2.643 0 00-1.15.537c-.345.23-.652.536-.997.805-.345.268-.69.575-1.073.805-.384.23-.844.383-1.265.383z" fill="#8D9998"/><path d="M14.49 11.922s1.878.536 6.248-.614 2.3 11.424-5.673 11.424c-.882 0-.92-1.112 1.533-3.105 0 0-3.45.805-1.955-1.764 0 0-2.453.422-1.341-1.533 0 0 .498-1.457.038-3.105.038 0 .307-.843 1.15-1.303z" fill="#E8E8E8"/><path d="M22.808 12.535c.077 3.373-2.606 8.97-7.935 8.97h-.076c-.499.805-.269 1.265.268 1.265 6.057-.038 8.702-7.245 7.743-10.235z" fill="#D1D1D1"/><path d="M20.048 14.375c-1.15 4.14-5.75 4.485-5.75 4.485-.191.882.192 1.265.69 1.265 1.687.038 4.83-2.76 5.06-5.75zm-3.22 0c-2.721 3.833-3.68 2.415-3.68 2.415-.69 1.533 1.112 1.533 1.419 1.188.881-.958 2.3-2.951 2.261-3.603z" fill="#D1D1D1"/><path d="M14.758 21.62c.46-.613 1.035-1.112 1.61-1.61a62.5 62.5 0 001.725-1.533c.537-.537 1.074-1.15 1.457-1.84.383-.69.575-1.495.498-2.262a4.524 4.524 0 01-.766 2.108c-.422.614-.92 1.189-1.457 1.725-.537.537-1.112 1.035-1.648 1.61a5.913 5.913 0 00-1.419 1.802zm-.46-2.76c.154-.422.384-.767.652-1.112.268-.345.537-.651.843-.996.269-.345.575-.69.767-1.074.23-.383.345-.881.268-1.303a2.643 2.643 0 01-.536 1.15c-.23.345-.537.652-.805.997-.269.345-.575.69-.805 1.073-.23.383-.384.843-.384 1.265z" fill="#8D9998"/><path d="M10.81 8.51s-.537-1.878.613-6.248S0-.038 0 7.935c0 .882 1.112.92 3.105-1.533 0 0-.805 3.45 1.763 1.955 0 0-.421 2.453 1.534 1.341 0 0 1.456-.498 3.105-.038 0-.038.843-.307 1.303-1.15z" fill="#E8E8E8"/><path d="M10.197.192c-3.374-.077-8.97 2.607-8.97 7.935v.077C.422 8.664 0 8.472 0 7.935 0 1.88 7.207-.766 10.197.192z" fill="#D1D1D1"/><path d="M8.357 2.952c-4.14 1.15-4.485 5.75-4.485 5.75-.882.191-1.265-.192-1.265-.69-.039-1.687 2.76-4.83 5.75-5.06zm0 3.22c-3.834 2.721-2.415 3.68-2.415 3.68-1.534.69-1.534-1.112-1.189-1.419.959-.881 2.952-2.3 3.604-2.261z" fill="#D1D1D1"/><path d="M1.112 8.242c.613-.46 1.111-1.035 1.61-1.61.498-.575.996-1.15 1.533-1.725.537-.537 1.15-1.074 1.84-1.457.69-.383 1.495-.575 2.262-.498a4.525 4.525 0 00-2.109.766 12.44 12.44 0 00-1.725 1.457c-.536.537-1.035 1.112-1.61 1.648-.536.575-1.111 1.074-1.801 1.419zm2.76.46c.421-.153.766-.383 1.111-.652.345-.268.652-.536.997-.843.345-.268.69-.575 1.073-.767.384-.23.882-.345 1.304-.268a2.643 2.643 0 00-1.15.537c-.345.23-.652.536-.997.805-.345.268-.69.575-1.073.805-.384.23-.844.383-1.265.383z" fill="#8D9998"/></svg>