<svg width="14" height="14" fill="none" xmlns="http://www.w3.org/2000/svg"><g clip-path="url(#clip0_415_769)"><path fill-rule="evenodd" clip-rule="evenodd" d="M10.639 3.464a1.129 1.129 0 011.556 1.635l-7.753 7.396-1.998.262.82-2.29 7.374-7.002v-.001zm2.607-.926a2.528 2.528 0 00-3.571-.09L2.177 9.567A.7.7 0 002 9.838L.74 13.364a.7.7 0 00.75.93l3.36-.441a.7.7 0 00.392-.187l7.918-7.553a2.528 2.528 0 00.086-3.575zM8.4 12.9a.7.7 0 100 1.4h4.2a.7.7 0 000-1.4H8.4z" fill="#666"/></g><defs><clipPath id="clip0_415_769"><path fill="#fff" d="M0 0h14v14H0z"/></clipPath></defs></svg>