<svg xmlns="http://www.w3.org/2000/svg" width="25" height="25" fill="none"><g clip-path="url(#clip0_854_1647)" fill="#F90"><path d="M9.896 13.542a1.042 1.042 0 00-1.042 1.041v2.084H3.646v-2.084a1.042 1.042 0 00-2.083 0v7.292a1.042 1.042 0 001.041 1.042h7.292a1.042 1.042 0 001.041-1.042v-7.292a1.042 1.042 0 00-1.041-1.041zm12.5 0a1.042 1.042 0 00-1.042 1.041v2.084h-5.208v-2.084a1.042 1.042 0 10-2.084 0v7.292a1.042 1.042 0 001.042 1.042h7.292a1.042 1.042 0 001.041-1.042v-7.292a1.042 1.042 0 00-1.041-1.041zm-4.687-5.209v.625l-1.355-1.354a.989.989 0 00-1.562.104 1.094 1.094 0 00.104 1.407l3.125 3.073a.99.99 0 001.458 0l3.125-3.073a1.094 1.094 0 00.105-1.407.99.99 0 00-1.563-.104l-1.354 1.354v-.625a7.291 7.291 0 10-14.584 0v3.125a1.042 1.042 0 002.084 0V8.333a5.208 5.208 0 1110.416 0z"/></g><defs><clipPath id="clip0_854_1647"><path fill="#fff" d="M0 0h25v25H0z"/></clipPath></defs></svg>