<svg width="18" height="18" fill="none" xmlns="http://www.w3.org/2000/svg"><g clip-path="url(#clip0_854_1637)" fill="#999"><path d="M7.125 9.75a.75.75 0 00-.75.75V12h-3.75v-1.5a.75.75 0 10-1.5 0v5.25a.75.75 0 00.75.75h5.25a.75.75 0 00.75-.75V10.5a.75.75 0 00-.75-.75zm9 0a.75.75 0 00-.75.75V12h-3.75v-1.5a.75.75 0 10-1.5 0v5.25a.75.75 0 00.75.75h5.25a.75.75 0 00.75-.75V10.5a.75.75 0 00-.75-.75zM12.75 6v.45l-.975-.975a.713.713 0 00-1.125.075.787.787 0 00.075 1.013l2.25 2.212a.712.712 0 001.05 0l2.25-2.213a.787.787 0 00.075-1.012.713.713 0 00-1.125-.075l-.975.975V6a5.25 5.25 0 10-10.5 0v2.25a.75.75 0 001.5 0V6a3.75 3.75 0 017.5 0z"/></g><defs><clipPath id="clip0_854_1637"><path fill="#fff" d="M0 0h18v18H0z"/></clipPath></defs></svg>