<svg width="185" height="49" fill="none" xmlns="http://www.w3.org/2000/svg"><path d="M61.154.13h10.24v.028c3.769 0 6.582 1.949 6.582 5.11 0 1.526-.759 2.768-1.969 3.672v.283c1.407.932 2.335 2.316 2.335 3.982 0 3.247-2.841 5.28-6.611 5.28H61.154V.13zm4.782 4.18v2.823h5.458c1.068 0 1.772-.536 1.772-1.44 0-.902-.703-1.382-1.772-1.382h-5.458V4.31zm0 7.003v2.993h5.795c1.068 0 1.772-.564 1.772-1.525 0-.96-.703-1.468-1.772-1.468h-5.795zM86.806.13h5.683l7.483 17.31v1.044H95.02l-1.21-2.994h-8.327l-1.21 2.994h-4.81V17.44L86.806.13zm.365 11.181h4.952l-2.278-5.647h-.422L87.17 11.31zM102.067.13h4.782v14.175h9.2v4.18h-13.982V.13zm16.21 0h4.783v14.175h9.199v4.18h-13.982V.13zm-37.91 37.672h-.393l-4.839 11.07h-3.882l-4.922-11.07h-.394v11.07h-4.782V30.516h6.668l5.119 11.577h.478l5.149-11.577h6.582V48.87H80.37V37.802h-.002zM94.6 30.517h5.684l7.483 17.31v1.044h-4.951l-1.21-2.994h-8.328l-1.21 2.994h-4.81v-1.045L94.6 30.517zm.367 11.181h4.951l-2.278-5.647h-.422l-2.251 5.647zm14.895-11.181h10.408c3.769 0 6.555 2.203 6.555 5.732 0 2.57-1.491 4.49-3.742 5.308v.17l4.473 6.1v1.044h-5.261l-4.387-6.353h-3.263v6.353h-4.783V30.517zm4.783 4.461v3.078h5.626c1.069 0 1.773-.565 1.773-1.553s-.703-1.525-1.773-1.525h-5.626zM141.221 38v.509l7.37 9.317v1.045h-5.317l-5.598-7.314-2.363 2.344v4.97h-4.782V30.517h4.782v7.568l7.398-7.568h4.952v1.045L141.221 38v.002zm9.528-7.483h15.05v4.18h-10.267v2.54h9.761v4.18h-9.761v3.275h10.324v4.18h-15.107V30.516zm17.091 0H185v4.18h-6.189V48.87h-4.783V34.696h-6.189v-4.179h.001zM43.333 39.632H9.335V5.507C9.335 2.919 7.245.82 4.667.82 2.09.821 0 2.92 0 5.507v38.809C0 46.903 2.09 49 4.667 49h38.666C45.911 49 48 46.902 48 44.316c0-2.588-2.09-4.684-4.667-4.684z" fill="#fff"/><path d="M31.18 34.317c9.29 0 16.82-7.558 16.82-16.882C48 8.112 40.47.553 31.18.553c-9.289 0-16.819 7.559-16.819 16.882 0 9.324 7.53 16.882 16.82 16.882z" fill="#fff"/></svg>