<svg width="180" height="72" fill="none" xmlns="http://www.w3.org/2000/svg"><path d="M71.984 4.152c2.027 0 3.723.192 5.088.576 1.387.363 2.421.97 3.104 1.824.704.832 1.056 1.963 1.056 3.392 0 .853-.139 1.632-.416 2.336-.277.704-.683 1.28-1.216 1.728-.512.448-1.141.736-1.888.864v.16a6.12 6.12 0 012.08.8c.619.384 1.11.939 1.472 1.664.363.725.544 1.685.544 2.88 0 1.387-.341 2.581-1.024 3.584-.661.981-1.621 1.739-2.88 2.272-1.259.512-2.752.768-4.48.768H64.88V4.152h7.104zm.544 9.056c1.408 0 2.379-.224 2.912-.672.555-.448.832-1.099.832-1.952 0-.875-.32-1.504-.96-1.888-.64-.384-1.653-.576-3.04-.576h-2.56v5.088h2.816zm-2.816 3.84V23h3.168c1.45 0 2.464-.277 3.04-.832.576-.576.864-1.333.864-2.272 0-.576-.128-1.077-.384-1.504-.235-.427-.65-.757-1.248-.992-.597-.235-1.408-.352-2.432-.352h-3.008zm23.452-7.872c2.347 0 4.139.512 5.376 1.536 1.259 1.003 1.888 2.55 1.888 4.64V27H97.1l-.928-2.368h-.128a8.708 8.708 0 01-1.536 1.536 4.673 4.673 0 01-1.792.864c-.661.192-1.483.288-2.464.288-1.024 0-1.952-.192-2.784-.576a4.518 4.518 0 01-1.92-1.824c-.47-.832-.704-1.877-.704-3.136 0-1.856.65-3.221 1.952-4.096 1.301-.896 3.253-1.387 5.856-1.472l3.04-.096v-.768c0-.917-.245-1.59-.736-2.016-.47-.427-1.13-.64-1.984-.64a8.24 8.24 0 00-2.496.384c-.81.235-1.621.533-2.432.896l-1.568-3.232c.939-.49 1.973-.875 3.104-1.152a15.26 15.26 0 013.584-.416zm.672 9.792c-1.536.043-2.603.32-3.2.832s-.896 1.184-.896 2.016c0 .725.213 1.248.64 1.568.427.299.981.448 1.664.448 1.024 0 1.888-.299 2.592-.896.704-.619 1.056-1.483 1.056-2.592v-1.44l-1.856.064zM110.077 27h-4.768V2.68h4.768V27zm9.75 0h-4.768V2.68h4.768V27zM74.544 57L69.04 39.08h-.128l.096 1.92c.043.853.085 1.77.128 2.752.043.96.064 1.835.064 2.624V57h-4.32V34.152h6.592l5.408 17.472h.096l5.728-17.472h6.592V57h-4.512V46.184c0-.725.01-1.557.032-2.496.043-.939.075-1.824.096-2.656l.096-1.92h-.128L78.992 57h-4.448zm27.308-17.824c2.346 0 4.138.512 5.376 1.536 1.258 1.003 1.888 2.55 1.888 4.64V57h-3.328l-.928-2.368h-.128a8.728 8.728 0 01-1.536 1.536 4.678 4.678 0 01-1.792.864c-.662.192-1.483.288-2.465.288-1.023 0-1.951-.192-2.783-.576a4.518 4.518 0 01-1.92-1.824c-.47-.832-.705-1.877-.705-3.136 0-1.856.651-3.221 1.953-4.096 1.3-.896 3.253-1.387 5.856-1.472l3.04-.096v-.768c0-.917-.246-1.59-.736-2.016-.47-.427-1.131-.64-1.984-.64a8.24 8.24 0 00-2.496.384c-.811.235-1.622.533-2.433.896l-1.567-3.232c.938-.49 1.973-.875 3.103-1.152a15.262 15.262 0 013.585-.416zm.672 9.792c-1.536.043-2.603.32-3.2.832-.598.512-.897 1.184-.897 2.016 0 .725.214 1.248.64 1.568.427.299.982.448 1.665.448 1.024 0 1.888-.299 2.592-.896.704-.619 1.056-1.483 1.056-2.592v-1.44l-1.856.064zm21.232-9.76c.235 0 .512.01.832.032.32.021.576.053.768.096l-.352 4.48a3.538 3.538 0 00-.672-.096 4.902 4.902 0 00-.736-.064c-.619 0-1.216.085-1.792.256a4.602 4.602 0 00-1.568.736c-.448.341-.811.8-1.088 1.376-.256.555-.384 1.248-.384 2.08V57h-4.768V39.528h3.616l.704 2.944h.224a7.195 7.195 0 011.28-1.632 6.23 6.23 0 011.76-1.184 5.37 5.37 0 012.176-.448zm9.539 4.352c0 .661-.032 1.323-.096 1.984a63.34 63.34 0 01-.16 1.952h.064l.64-.896.704-.896a14.2 14.2 0 01.736-.864l4.896-5.312h5.376l-6.944 7.584 7.36 9.888h-5.504l-5.024-7.072-2.048 1.632V57h-4.768V32.68h4.768v10.88zm22.276-4.352c1.621 0 3.008.31 4.16.928a6.482 6.482 0 012.72 2.688c.64 1.173.96 2.613.96 4.32v2.304h-11.264c.043 1.344.437 2.4 1.184 3.168.768.768 1.824 1.152 3.168 1.152 1.131 0 2.155-.107 3.072-.32a15.573 15.573 0 002.848-1.056v3.68c-.853.427-1.76.736-2.72.928-.939.213-2.08.32-3.424.32-1.749 0-3.296-.32-4.64-.96-1.344-.661-2.4-1.653-3.168-2.976-.768-1.323-1.152-2.987-1.152-4.992 0-2.048.341-3.744 1.024-5.088.704-1.365 1.675-2.39 2.912-3.072 1.237-.683 2.677-1.024 4.32-1.024zm.032 3.392c-.917 0-1.685.299-2.304.896-.597.597-.949 1.525-1.056 2.784h6.688c0-.704-.128-1.333-.384-1.888a2.857 2.857 0 00-1.088-1.312c-.491-.32-1.109-.48-1.856-.48zm19.034 10.912c.534 0 1.046-.053 1.536-.16.491-.107.982-.235 1.472-.384v3.552c-.512.213-1.152.395-1.92.544-.746.17-1.568.256-2.464.256-1.045 0-1.984-.17-2.816-.512-.81-.341-1.461-.928-1.952-1.76-.469-.853-.704-2.027-.704-3.52v-8.416h-2.272v-2.016l2.624-1.6 1.376-3.68h3.04v3.712h4.896v3.584h-4.896v8.416c0 .661.192 1.163.576 1.504.384.32.886.48 1.504.48z" fill="#fff"/><rect y="7" width="9" height="50" rx="4.5" fill="#fff"/><rect x="50" y="48" width="9" height="50" rx="4.5" transform="rotate(90 50 48)" fill="#fff"/><circle cx="33" cy="24" r="17" fill="#fff"/></svg>