<svg width="100" height="63" fill="none" xmlns="http://www.w3.org/2000/svg"><g clip-path="url(#clip0_332_1034)"><path d="M49.7 54.738c0-2.535 2.2-4.507 4.8-4.507 2.6 0 4.8 2.066 4.8 4.507 0 2.44-2.2 4.506-4.8 4.506-2.6 0-4.8-1.971-4.8-4.506zm19.7 0c0-2.535 2.2-4.507 4.8-4.507 2.7 0 4.8 2.066 4.8 4.507 0 2.44-2.2 4.506-4.8 4.506-2.6.094-4.8-1.971-4.8-4.506zm-45.6 0c0-2.535 2.2-4.507 4.8-4.507 2.7 0 4.8 2.066 4.8 4.507 0 2.44-2.2 4.506-4.8 4.506-2.7.094-4.8-1.971-4.8-4.506zm-19.7 0c0-2.535 2.2-4.507 4.8-4.507 2.7 0 4.8 2.066 4.8 4.507 0 2.44-2.2 4.506-4.8 4.506-2.6.094-4.8-1.971-4.8-4.506zm39.8-7.98h-4.2v15.866h4.2V46.757zM13.8 62.623H18V46.757h-4.2v1.315a8.899 8.899 0 00-5-1.503C4 46.57.1 50.231.1 54.738c0 4.6 3.9 8.168 8.7 8.168 1.9 0 3.6-.563 5-1.502v1.22zm65.3 0h4.2V46.757h-4.2v1.315a8.899 8.899 0 00-5-1.503c-4.8 0-8.7 3.662-8.7 8.169 0 4.6 3.9 8.168 8.7 8.168 1.9 0 3.6-.563 5-1.502v1.22zm5.7-5.163c.1 3.192 3 5.445 7.9 5.445 4 0 7.3-1.596 7.3-5.164 0-2.535-1.5-3.943-4.9-4.6l-2.7-.47c-1.7-.281-2.9-.657-2.9-1.596 0-1.033 1.2-1.502 2.6-1.502 2.1 0 3 1.033 3 2.16h4.2c-.2-3.1-2.9-5.165-7.2-5.165-4.4 0-7 2.254-7 5.258 0 3.568 3.1 4.225 5.8 4.695l2.2.375c1.6.282 2.3.751 2.3 1.596 0 .751-.8 1.596-2.7 1.596-2.8 0-3.6-1.314-3.7-2.535h-4.2v-.093zM33.4 41.31v6.667a8.899 8.899 0 00-5-1.503c-4.8 0-8.7 3.662-8.7 8.169 0 4.6 3.9 8.168 8.7 8.168 1.9 0 3.6-.563 5-1.502v1.127h4.2V41.312h-4.2zm26 0v6.667a8.899 8.899 0 00-5-1.503c-4.8 0-8.7 3.662-8.7 8.169 0 4.6 3.9 8.168 8.7 8.168 1.9 0 3.6-.563 5-1.502v1.127h4.2V41.312h-4.2zm-48.5-4.694l2.9 4.695h19.6l-7.8-12.676-14.7 7.981zm33 8.638V41.31h15.5L42.9 14.554 28.2 22.44l11.5 18.872v3.943h4.2zm21.7-3.944h19.7L59.9 0 45.2 7.98l20.4 33.332z" fill="#000"/></g><defs><clipPath id="clip0_332_1034"><path fill="#fff" d="M0 0h100v63H0z"/></clipPath></defs></svg>