<svg width="26" height="26" fill="none" xmlns="http://www.w3.org/2000/svg"><path d="M15.632 9.726l.751.752-.751.751c.167.084.375.167.542.209l.585-.585.751.752c.292 0 .543-.042.835-.084l.668-.668.376.376c.167-.042.376-.125.543-.209l-.543-.542.752-.752.793.793c.167-.083.292-.208.46-.292l-.878-.877.752-.751.918.918c.084-.041.126-.125.21-.167a.739.739 0 00.166-.208l-.918-.919.751-.751.877.876c.125-.167.209-.292.292-.459l-.835-.793.752-.752.542.543a2.96 2.96 0 00.21-.543l-.377-.376.668-.668c.042-.292.084-.542.084-.835l-.752-.71.585-.584a2.087 2.087 0 00-.209-.543l-.751.752-.752-.752.919-.918c-.042-.084-.126-.125-.167-.209-.084-.083-.126-.125-.21-.167l-.918.919-.751-.752.751-.751a2.902 2.902 0 00-.542-.21l-.585.585-.751-.751c-.293 0-.543.042-.835.083l-.669.668-.375-.375a2.9 2.9 0 00-.543.208l.543.543-.71.752-.793-.794c-.167.084-.293.21-.46.293l.877.876-.751.752-.96-.919c-.084.042-.126.126-.21.167-.083.042-.125.126-.166.21l.918.918-.751.751-.877-.877a2.806 2.806 0 00-.292.46l.793.793-.752.751-.542-.542a2.895 2.895 0 00-.209.542l.376.376-.627.668c-.041.293-.083.543-.083.835l.752.752-.585.584c.042.209.125.376.209.543l.751-.751.752.751-.919.919c.042.083.126.125.167.208.084.042.126.126.209.167l.919-.96zm7.849-5.595l.751.752-.751.751-.752-.751.752-.752zM22.353 5.26l.752.751-.752.752-.751-.752.751-.751zm-1.127 1.127l.752.752-.752.71-.751-.752.751-.71zM20.1 7.472l.751.751-.751.752-.752-.752.752-.751zm-1.13 1.127l.752.751-.752.752-.751-.752.752-.751zm-1.085 1.127l.752.752-.752.751-.752-.751.752-.752zm4.467-6.722l.752.752-.752.751-.751-.751.751-.752zm-1.127 1.127l.752.752-.752.751-.751-.751.751-.752zM20.1 5.26l.751.751-.751.752-.752-.752.752-.751zm-1.13 1.126l.752.752-.752.751-.751-.793.752-.71zm-1.085 1.086l.752.751-.752.752-.752-.752.752-.751zm-1.127 1.127l.751.751-.751.752-.752-.752.752-.751zm-2.255-.752l-.751-.751.751-.752.752.752-.752.751zm1.128-1.127l-.752-.752.752-.751.751.751-.751.752zm1.127-1.086l-.752-.751.752-.752.751.752-.751.751zm1.127-1.127l-.752-.751.752-.752.752.752-.752.751zM18.97 3.38l-.751-.752.752-.751.751.751-.752.752zm1.13-1.127l-.752-.752L20.1.75l.751.751-.751.752zm-4.467 6.722l-.752-.752.752-.751.751.751-.751.752zm1.127-1.128l-.752-.751.752-.752.751.752-.751.751zm1.127-1.127l-.752-.752.752-.751.752.751-.752.752zm1.085-1.086l-.751-.751.752-.752.751.752-.752.751zM20.1 4.507l-.752-.751.752-.752.751.752-.751.751zm1.127-1.127l-.751-.752.751-.751.752.751-.752.752z" fill="#E8E8E8"/><path d="M14.129 10.853c-2.171-2.17-1.838-5.636.751-8.225 2.797-2.797 6.972-3.465 8.976-1.503 2.004 2.004 1.295 6.18-1.503 8.977-2.588 2.588-6.053 2.922-8.225.751zm8.976-8.976C21.56.332 17.97 1.042 15.632 3.38c-2.171 2.171-2.464 5.01-.752 6.722 1.754 1.712 4.55 1.42 6.722-.752 2.338-2.338 3.048-5.887 1.503-7.473z" fill="#B2C1C0"/><path d="M7.438 16.765l6.705-6.697.737.738-6.705 6.698-.738-.739z" fill="#B2C1C0"/><path d="M2.146 24.798s.334-.793.543-1.002l4.091-4.092 1.42-2.129-.752-.793-2.129 1.42-4.092 4.091c-.208.209-1.002.543-1.002.543-.25.125-.292.376-.125.584l1.503 1.503c.167.209.418.167.543-.125z" fill="#3E4347"/><path d="M13.836 9.643L12.71 10.77a1.058 1.058 0 000 1.503 1.058 1.058 0 001.503 0l1.127-1.127-1.503-1.503z" fill="#B2C1C0"/><path opacity=".5" d="M4.526 18.953l-.334.376 2.213.752-1.88-1.128zm-.71.752l-.376.376 2.213.71-1.837-1.086zm-.751.751l-.376.334 2.213.752-1.837-1.086zm-.752.71l-.376.376 2.255.751-1.879-1.127zm-.751.752l-.376.375 2.254.752-1.878-1.128zm4.467-2.965l-.543-.584 2.13-1.378.375.376-1.962 1.586z" fill="#B2C1C0"/><path d="M15.506 15.571c-.793.793-.793 2.088 0 2.923l2.923-2.923c-.793-.793-2.088-.793-2.923 0z" fill="#E8E8E8" stroke="#000" stroke-width=".5"/><path d="M15.542 18.5l2.922-2.922.738.738-2.922 2.923-.738-.738z" fill="#ED4C5C"/><path d="M16.08 19.422l.677.676 2.194 5.05.146.337.26-.26.71-.71.118-.118-.064-.154-.353-.848.387-.387.453.604.174.23.203-.203.71-.71.153-.153-.13-.174-.496-.661.394-.394.618.52.175.148.163-.163.71-.71.192-.192-.208-.175-.585-.493.566-.566.847.353.155.065.118-.119.71-.71.254-.254-.327-.15-4.969-2.277-.678-.678-.177-.177-.177.177-2.922 2.922-.177.177.177.177zm2.858 1.88l.293.42-.13.13-.21-.503.047-.046zm1.073-1.115l.06-.06.41.345-.146.146-.324-.43zm1.529-.785l-.404-.34.107-.106.514.214-.217.232z" fill="#E8E8E8" stroke="#000" stroke-width=".5"/></svg>