<svg width="25" height="25" fill="none" xmlns="http://www.w3.org/2000/svg"><path d="M4.583 9.166a4.583 4.583 0 100-9.166 4.583 4.583 0 000 9.166z" fill="#C7E755"/><path d="M3.583 5.583A4.553 4.553 0 000 4.208v.5a4.002 4.002 0 013.208 1.25 4.358 4.358 0 011.25 3.208h.5a4.553 4.553 0 00-1.375-3.583zm5.583-1.125C8 4.5 6.833 4.125 5.958 3.208A4.358 4.358 0 014.708 0h-.5a4.923 4.923 0 001.375 3.583c1 1 2.292 1.458 3.583 1.375v-.5z" fill="#fff"/><path d="M21.166 13.666l.416-.417-.958-.958 1.666-1.667.625.625.417-.416-.625-.625 1.583-1.584-.416-.416L22.29 9.79l-1.333-1.333 1.667-1.667 1.291 1.292.417-.417-1.292-1.291 1.042-1.042-.417-.417-1.041 1.042-1.292-1.375 1.458-1.458-.416-.417-1.458 1.458-1.334-1.333 1.042-1.041-.417-.417-1.041 1.042-1.292-1.292-.417.417 1.292 1.291L17.082 4.5 15.75 3.166l1.583-1.583-.416-.416-1.584 1.583-.625-.625-.416.417.625.624-1.667 1.667-.958-.958-.417.416.959.959-1.667 1.666-.625-.625-.417.417.625.625-1.583 1.583.417.417 1.583-1.583L12.5 9.083l-1.666 1.666L9.54 9.458l-.416.416 1.291 1.292-1.042 1.042.417.416 1.042-1.041 1.333 1.333-1.458 1.458.416.417 1.459-1.458 1.333 1.333-1.042 1.041.417.417 1.042-1.041 1.291 1.291.417-.417-1.292-1.291 1.667-1.667 1.333 1.333-1.583 1.584.416.416 1.542-1.583.625.625.417-.417-.625-.625 1.666-1.666.959 1zm.708-3.458l-1.667 1.666-1.333-1.333 1.667-1.667 1.333 1.334zm-5.5 2l-1.333-1.334 1.666-1.666 1.334 1.333-1.667 1.667zm-1.416-4.75L16.29 8.79l-1.667 1.667-1.333-1.334 1.666-1.666zm2.083-2.083l1.333 1.333-1.667 1.666-1.333-1.333 1.667-1.666zm.083 3.416l1.667-1.666 1.333 1.333-1.667 1.666-1.333-1.333zm5.083-2.416L20.541 8.04l-1.334-1.333 1.667-1.667 1.333 1.334zM19.124 3.29l1.333 1.334-1.666 1.666-1.292-1.375 1.625-1.625zm-3.833.334l1.333 1.333-1.666 1.667-1.334-1.334 1.667-1.666zm-3.75 3.75l1.667-1.667 1.333 1.333-1.667 1.667-1.333-1.333zm-.333 3.833l1.666-1.667 1.334 1.333-1.667 1.667-1.333-1.333zm3.041 3.083l-1.333-1.333 1.666-1.667 1.334 1.333-1.667 1.667zm3.875-.334l-1.333-1.333 1.666-1.666 1.334 1.333-1.667 1.666z" fill="#D0D0D0"/><path d="M23.207 2.291C20.374-.542 15.124.041 11.541 3.625c-3.583 3.583-4.166 8.79-1.333 11.666 2.875 2.833 8.083 2.25 11.666-1.334 3.583-3.583 4.166-8.79 1.333-11.666zM11.249 14.25c-2.416-2.416-1.916-6.791 1.125-9.833 3.042-3.041 7.417-3.541 9.833-1.125 2.417 2.417 1.917 6.792-1.125 9.833-3.041 3.042-7.458 3.542-9.833 1.125z" fill="#FF717F"/><path d="M15.04 17.04c.292 0-2.416-.958-2.416-.958s-3.416 1.542-4.083.875c-.666-.666.875-4.083.875-4.083s-.958-2.708-1-2.416c-.166 2.708-.583 5.374-1.875 6.874-.166.209-.416.417-.416.417l.791.792.792.791s.208-.25.417-.416c1.541-1.25 4.208-1.709 6.916-1.875z" fill="#FF717F"/><path d="M.637 22.8l5.686-5.687 2.033 2.033-5.687 5.686-2.032-2.033z" fill="#4D4F59"/><path d="M3.333 20.082l1.417 2.625.875-.875-1.417-2.666-.875.916zm-1.792 1.792l1.417 2.666.875-.916-1.417-2.625-.874.875z" fill="#4D4F59"/><path d="M.625 22.79l2 2.042.333-.292-1.416-2.666-.917.916zM2.417 21l1.416 2.625.917-.917-1.417-2.625-.916.917zm3.916-3.917l-.292.292 1.375 2.667.917-.917-2-2.042z" fill="#5F606C"/><path d="M5.125 18.29l1.416 2.626.875-.875-1.375-2.667-.916.917z" fill="#4D4F59"/><path d="M4.208 19.166l1.417 2.666.916-.917-1.416-2.624-.917.875z" fill="#5F606C"/><path d="M.44 22.608l.648-.648 2.386 2.387-.648.648L.44 22.608zm5.047-5.039l.648-.648 2.386 2.387-.648.648-2.386-2.387z" fill="#4D4F59"/></svg>