<svg width="25" height="25" fill="none" xmlns="http://www.w3.org/2000/svg"><path d="M5.651 23.734s3.039-1.582 6.203-.958c2.955.583 3.038-1.248 4.62-1.248 1.581 0 1.332-1.416 2.539-1.332 0 0 .541.041.541.582 0 0-.999.042-1.415.833-.416.79-2.747.707-3.663 1.623-1.124 1.124-4.288.375-5.62.5-1.04.124-2.289 1.248-4.079 1.248l.874-1.248z" fill="#3E4347"/><path d="M10.521 21.486s1.915-.083 3.04.75c1.165.832 1.997 1.872 3.454 1.373 1.457-.5 2.83-.874 4.412-.375 0 0 .208-.291.166-.624 0 0-.998-.583-2.164-.333-1.165.25-2.33.915-3.08.666-.75-.25-2.331-1.957-4.87-1.957l-.957.5z" fill="#3E4347"/><path d="M22.384 23.192c.042-.083.042-.166 0-.166l-1.373-.5-.125.292 1.374.5s.083-.042.124-.126z" fill="#3E4347"/><path d="M5.11 14.826S2.863 7.209 10.563 4.71c6.827-2.164 4.579 4.204-5.453 10.115z" fill="#C94747"/><path d="M10.563 3.587c-3.58 9.241-6.035 8.991-4.37 12.238l.624 8.242s1.124-.666 3.788-2.207c1.998-1.165 5.952-1.456 8.616-3.038 4.703-2.747 7.41-6.951 4.703-11.697C21.22 2.422 13.56-4.196 10.564 3.587z" fill="#ED4C5C"/><path d="M9.314 16.99c-1.332-2.33-3.413-3.621-4.661-2.913L.865 16.283l4.787 8.491 3.787-2.206c1.25-.75 1.207-3.247-.125-5.578z" fill="#C94747"/><path d="M5.568 19.197c1.332 2.33 1.374 4.828.125 5.577-1.249.75-3.33-.583-4.662-2.914C-.3 19.53-.342 17.032.906 16.283c1.25-.708 3.33.582 4.662 2.913z" fill="#3E4347"/><path d="M4.819 19.613c.957 1.706 1.04 3.496.208 3.996-.832.5-2.33-.458-3.288-2.165-.958-1.706-1.04-3.496-.208-3.996.874-.5 2.33.5 3.288 2.165z" fill="#ED4C5C"/><path d="M4.819 19.613c-.79-1.415-1.956-2.331-2.83-2.29-.167.791.083 1.998.749 3.164.79 1.415 1.956 2.33 2.83 2.29.167-.792-.083-1.999-.749-3.164z" fill="#C94747"/><path d="M15.267 1.673c1.248-.75 5.244 2.247 7.076 5.452 1.831 3.206-1.04 3.83-2.872.625-1.79-3.247-6.244-4.912-4.204-6.077z" fill="#FF717F"/><path d="M10.064 4.92s-.833 3.912-3.705 7.117c0 0 1.832-2.914 2.498-6.618l1.207-.5z" fill="#3E4347"/><path d="M11.645 3.296c1.416-.416.042-1.582.833-2.497-.75.582-1.707 1.415-2.081 2.788C8.482 10.872 5.693 11.58 5.65 13.91c.5-.333 1.582-1.373 2.83-1.04 1.79.5-2.039-1.873.084-1.582 2.165.25-.874-1.54 1.082-1.665 1.957-.125-1.665-2.081.874-2.04 2.54.042-1.456-1.706 1.457-1.873 2.914-.25-2.08-1.914-.333-2.414z" fill="#C94747"/><path d="M2.904 15.783c1.124.5 2.29 1.624 3.164 3.122.874 1.54 1.207 3.08 1.082 4.33l2.04-1.208c.832-.5.915-2.58-.333-4.787-1.041-1.831-2.498-2.83-3.372-2.83a.99.99 0 00-.5.125l-2.08 1.248z" fill="#fff"/><path d="M20.387 20.279c0-.084-.042-.167-.084-.167l-1.498.292.041.332 1.457-.25a.318.318 0 00.084-.207z" fill="#3E4347"/></svg>