<svg width="25" height="26" fill="none" xmlns="http://www.w3.org/2000/svg"><path d="M14.895 22.52c-.196.195-.43.39-.704.508l-3.09 1.446c-.625.274-1.29.313-1.915.079a2.537 2.537 0 01-1.408-1.29l-1.447-3.09a2.517 2.517 0 01.509-2.815c.195-.196.43-.391.703-.508l3.09-1.447a2.501 2.501 0 013.323 1.212l1.447 3.089c.43.9.234 2.072-.508 2.815zm-6.921-4.067a.9.9 0 00-.196 1.016l1.447 3.09c.117.234.273.39.508.469.235.078.47.078.704-.04l3.089-1.446c.43-.196.626-.743.43-1.173l-1.447-3.09c-.195-.43-.743-.625-1.173-.43l-3.128 1.408c-.078.04-.195.117-.234.196z" fill="#B0BDC6"/><path d="M14.152 22.011a1.547 1.547 0 01-.587.391l-2.502 1.173c-.509.235-1.056.274-1.565.078-.508-.195-.938-.547-1.133-1.055L7.19 20.095c-.351-.782-.195-1.72.391-2.307.157-.156.352-.313.587-.391l2.502-1.173c1.017-.47 2.23-.04 2.699.977l1.173 2.503c.352.782.195 1.72-.391 2.307zm-5.67-3.285a.726.726 0 00-.157.822l1.173 2.502c.079.196.235.313.43.391a.66.66 0 00.548-.039l2.502-1.173c.352-.156.509-.626.352-.978l-1.173-2.502c-.156-.352-.586-.508-.977-.352L8.677 18.57c-.039.04-.117.078-.195.156zM.583 21.033s-1.564.978.43 2.972c1.995 1.994 2.972.43 2.972.43L.583 21.033z" fill="#898A90"/><path d="M1.13 21.58s-1.642.9-.117 2.425 2.425-.117 2.425-.117L1.13 21.58z" fill="#B0BDC6"/><path d="M10.476 1.287L.583 20.955c-.704 1.095 2.385 4.184 3.48 3.48l19.63-9.892L10.475 1.287z" fill="#ED4C5C"/><path d="M24.592 13.76l-.548.548c-1.368 1.369-5.435-.508-9.11-4.184C11.258 6.41 9.342 2.343 10.71.974l.547-.547L24.592 13.76z" fill="#898A90"/><path d="M24.083 13.291l-1.446 1.447s-3.05.04-7.703-4.653C10.24 5.432 10.28 2.382 10.28 2.382L11.726.935l12.356 12.356z" fill="#DFE9EF"/><path d="M20.369 4.65c3.675 3.675 5.552 7.781 4.183 9.11-1.368 1.37-5.435-.508-9.11-4.183C11.766 5.9 9.889 1.795 11.258.427c1.369-1.33 5.435.547 9.11 4.223z" fill="#B0BDC6"/><path d="M15.442 9.577c2.62 2.62 5.435 4.3 7.312 4.614-.313-1.916-1.994-4.693-4.614-7.312-2.62-2.62-5.435-4.301-7.312-4.614.313 1.877 2.033 4.692 4.614 7.312z" fill="#898A90"/></svg>