<svg width="25" height="25" fill="none" xmlns="http://www.w3.org/2000/svg"><path d="M22.206 2.777C19.623.194 13.666-2.181 8 3.443c-3.75 3.708-5.083 8.416 0 13.5 5.083 5.04 9.79 3.707 13.54 0 5.667-5.667 3.25-11.583.667-14.166z" fill="#ED4C5C"/><path d="M11.999 19.692l-6.75-6.75s1.417 3.292-1 5.75c0 0-2.04 2.041-4.207 3.916.25.5.166.542 1.041 1.458.75.75.792.667 1.208.917a82.412 82.412 0 013.958-4.291c2.458-2.417 5.75-1 5.75-1z" fill="#FED0AC"/><path opacity=".5" d="M2.333 24.9a80.724 80.724 0 013.541-3.792L9.5 17.192l-1.75-1.75-3.916 3.625c-.708.666-2.25 2.166-3.833 3.541.25.5.167.542 1.042 1.458.75.75.791.667 1.208.917l.083-.083z" fill="#D3976E"/><path d="M1.625 24.608c.25.208.375.25.625.375.041-.042.041-.042.083-.042a80.761 80.761 0 013.541-3.791L9.5 17.234l-1 .583-6.874 6.79z" fill="#D3976E"/><path d="M11.999 19.692l-2.5-2.5-3.375 3.625c.667-.667 2.708-2.208 5.875-1.125zm-6.75-6.75l2.5 2.5-3.624 3.375c.666-.708 2.208-2.708 1.125-5.875z" fill="#3E4347"/><path d="M21.706 24.983a3.291 3.291 0 100-6.583 3.291 3.291 0 000 6.583z" fill="#FF8736"/><path d="M23.998 20.442c-.167.333-.834.333-1.459 0-.625-.333-1.041-.875-.874-1.167.166-.333.833-.333 1.458 0 .666.334 1.041.834.875 1.167z" fill="#FF8736"/></svg>