<svg width="25" height="21" fill="none" xmlns="http://www.w3.org/2000/svg"><path d="M15.958.124c2.542 3.167 3.209 4.834 3 7.625 3.167 0 3.917 2.584 6 2.584v4.083H12.667s.458-.708-.042-1.708l.458-3.5s.792 1.083 2.084.375c0 0-1.459-1.125-.584-2.875-.5-1.084-.541-1.542-.375-3.167-2.75-1.125-5.291-.917-8.041-.75-.875 1.375-3.417 2-4.5 1.792-.625-.125 1.666-.667 1.25-.875 0 0-1.167.375-2.834.125C-.125 3.79.5 2.249 1 1.874c.458-.333 1.667-1 2.792-.958.708.042 1.416.417 2 .417C6.5 1.374 7.417.999 8.333.79c2.375-.625 4.5-1 7.625-.667z" fill="#FED0AC"/><path d="M14.583 6.708s1.209 1.791 3.709 1.333c-2.209-.375-3.709-1.333-3.709-1.333zm1.209-1.959S14.917 2.583 12.417 3c1.958.417 3.375 1.75 3.375 1.75zm5.166 7.959s.792-3.834-2.166-4.584c2.375 1.042 2.166 4.584 2.166 4.584zm-8.083-3.334l-.375 3.292a9.586 9.586 0 003.042-.042c-1.042-2.666-2.667-3.25-2.667-3.25zm7.197 1.899c.03-.275-.112-.516-.317-.539-.206-.023-.398.181-.428.456-.03.274.111.515.317.538.206.023.398-.181.428-.455z" fill="#E0A372"/><path d="M2.667 10.291C2.333 13 4.625 15.5 7.75 15.874c1.375.167 2.917-.458 4-1.083 1.333-.75 2.208-2.667 2.25-3.167.042-.5-.333-2.541-1.458-3.583-.917-.833-2.25-1.792-3.625-1.958-3.125-.375-5.917 1.5-6.25 4.208z" fill="#FED0AC"/><path d="M7.792 10.916C8.25 7 10.333 6.5 10.333 6.5s-.458-.333-1.458-.458c-3.125-.375-5.917 1.5-6.25 4.208-.333 2.709 1.958 5.209 5.083 5.584 1 .125 1.5-.084 1.5-.084 0 .042-1.875-.916-1.416-4.833z" fill="#F15744"/><path d="M9.625 11.666c-.583-.208-1.292.375-1.583 1.25-.292.875-.042 1.75.541 1.958.584.209 1.292-.375 1.584-1.25.291-.916.083-1.791-.542-1.958z" fill="#231F20"/><path d="M9.542 12.124c-.417-.125-.917.25-1.125.875-.209.625-.042 1.209.375 1.375.416.125.916-.25 1.125-.875.208-.625.041-1.25-.375-1.375z" fill="#44618B"/><path d="M9.458 10.791c-.625-.042-1.041-.833-1-1.75.084-.917.625-1.625 1.25-1.583.625.041 1.042.833 1 1.75-.083.916-.625 1.625-1.25 1.583z" fill="#231F20"/><path d="M9.5 10.291c-.458-.042-.75-.583-.708-1.25.041-.667.458-1.167.875-1.125.458.042.75.583.708 1.25-.042.667-.458 1.167-.875 1.125z" fill="#44618B"/><path d="M9.25 10.5l-.083 1.333h.5l.125-1.292-.542-.042zM10 7.707l.583-1.042-.458-.25L9.417 7.5l.583.209z" fill="#428BC1"/><path d="M10.542 11.708c.25.041.5-.167.541-.417.042-.25-.166-.5-.416-.542l-.125.959z" fill="#E0A372"/><path d="M12.75 10.374c.417.042.25.542.167 1.125-.084.584 0 1.125-.417 1.084-.417-.042-.708-.584-.625-1.209.042-.583.458-1.041.875-1z" fill="#574137"/><path d="M9.197 11.95l.023-.249.415.038-.023.25-.415-.039zm.114-1.313l.016-.25.416.028-.016.25-.416-.028zm.141-3.067l.106-.226.453.211-.106.227-.453-.212z" fill="#44618B"/><path d="M0 12.5h25v8.333H0v-8.334z" fill="#75D6FF"/><path d="M9.083 18.25c-.625.083-1.375.041-1.958-.167-.792-.25-1.5-.708-2.333-.833-1.125-.209-2.334 0-3.375.416 1.375-.083 2.666-.208 4 .292 1.125.417 2.416.875 3.666.292zm4.834-3.209c-.584.083-1.417.083-1.959-.167-.791-.25-1.5-.708-2.333-.833-1.125-.208-2.333-.042-3.375.417 1.375-.084 2.667-.209 4 .291 1.125.417 2.458.875 3.667.292zm4.833 3.209c-.583.083-1.417.083-1.958-.167-.792-.25-1.5-.708-2.334-.833-1.125-.209-2.333 0-3.375.416 1.375-.083 2.667-.208 4 .292 1.125.417 2.459.875 3.667.292zm4.875-3.209c-.583.083-1.417.083-1.958-.167-.792-.25-1.5-.708-2.334-.833-1.125-.208-2.333-.042-3.375.417 1.375-.084 2.667-.209 4 .291 1.125.417 2.459.875 3.667.292z" fill="#42ADE2"/></svg>