<svg width="25" height="25" fill="none" xmlns="http://www.w3.org/2000/svg"><path d="M13.29 25c-.12 0-.3-.06-.419-.12-.239-.178-.359-.416-.299-.654 0-.06 1.494-6.428-7.349-13.393a.598.598 0 01-.06-.893c.24-.297.717-.297.956-.06 7.05 5.596 8.007 10.775 7.947 13.275 5.676-3.631 8.843-7.381 9.5-11.19.538-3.513-1.374-5.656-1.434-5.775-.239-.297-.179-.654.06-.893a.728.728 0 01.956.06c.12.12 2.39 2.679 1.733 6.726-.717 4.405-4.481 8.75-11.353 12.857.06 0-.12.06-.239.06z" fill="#ADA7A7"/><path d="M7.075 25c-.18 0-.299-.06-.478-.179-.239-.178-.299-.476-.18-.773.12-.238 2.63-5.536-4.122-12.62-.239-.297-.239-.654.06-.892s.717-.238.956.06c5.019 5.297 5.318 9.761 4.9 12.142 11.412-8.095 10.336-14.88 10.336-14.94-.06-.298.12-.536.359-.715a.842.842 0 01.836.12c7.648 7.737 2.39 12.44 2.39 12.5a.812.812 0 01-1.016 0 .646.646 0 010-.893c.18-.18 3.705-3.453-1.254-9.346-.359 2.917-2.39 8.87-12.488 15.417a.457.457 0 01-.299.119z" fill="#ADA7A7"/><path d="M18.727 25h-.18c-.358-.12-.597-.476-.478-.774.06-.238 1.733-6.071-6.094-12.798-.598 2.084-2.51 6.608-8.067 11.012a.728.728 0 01-.956-.06c-.239-.297-.239-.654.06-.892 6.931-5.476 7.887-11.31 7.887-11.37a.758.758 0 01.419-.535c.239-.06.478-.06.716.12 9.56 7.559 7.529 14.523 7.41 14.82a.776.776 0 01-.717.477z" fill="#ADA7A7"/><path d="M6.298 12.62c-7.588 0-6.632-3.691-5.616-5.06C3.49 3.81 14.126 0 19.742 0c6.453 0 5.438 3.571 4.063 5.357-3.047 4.107-11.89 7.262-17.507 7.262zM19.742 1.844c-4.6 0-13.085 3.096-15.893 5.774-.538.536-1.554 1.964 2.51 1.964 5.018 0 12.666-3.095 14.996-5.833.777-1.012 1.195-1.905-1.613-1.905z" fill="#ED4C5C"/></svg>