<svg width="25" height="26" fill="none" xmlns="http://www.w3.org/2000/svg"><rect width="25" height="26" rx="12.5" fill="#1D89E4"/><rect x="22.138" y="18.058" width="6.185" height="20.558" rx="3.093" transform="rotate(135 22.138 18.058)" fill="#F3B98D"/><rect x="17.764" y="3.521" width="6.185" height="20.558" rx="3.093" transform="rotate(45 17.764 3.521)" fill="#FFCBA3"/><ellipse cx="17.25" cy="6.141" rx=".205" ry=".242" transform="rotate(45 17.25 6.141)" fill="#C49D7C"/><ellipse cx="18.564" cy="7.398" rx=".205" ry=".242" transform="rotate(45 18.564 7.398)" fill="#C49D7C"/><ellipse cx="17.358" cy="7.398" rx=".205" ry=".242" transform="rotate(45 17.358 7.398)" fill="#C49D7C"/><ellipse cx="18.673" cy="8.655" rx=".205" ry=".242" transform="rotate(45 18.673 8.655)" fill="#C49D7C"/><ellipse cx="14.819" cy="8.623" rx=".205" ry=".242" transform="rotate(45 14.82 8.623)" fill="#C49D7C"/><ellipse cx="16.133" cy="9.88" rx=".205" ry=".242" transform="rotate(45 16.133 9.88)" fill="#C49D7C"/><ellipse cx="14.928" cy="9.88" rx=".205" ry=".242" transform="rotate(45 14.928 9.88)" fill="#C49D7C"/><ellipse cx="16.242" cy="11.137" rx=".205" ry=".242" transform="rotate(45 16.242 11.137)" fill="#C49D7C"/><ellipse cx="16.089" cy="7.366" rx=".205" ry=".242" transform="rotate(45 16.089 7.366)" fill="#C49D7C"/><ellipse cx="17.403" cy="8.623" rx=".205" ry=".242" transform="rotate(45 17.403 8.623)" fill="#C49D7C"/><ellipse cx="16.197" cy="8.623" rx=".205" ry=".242" transform="rotate(45 16.197 8.623)" fill="#C49D7C"/><ellipse cx="17.512" cy="9.88" rx=".205" ry=".242" transform="rotate(45 17.512 9.88)" fill="#C49D7C"/><ellipse cx="18.647" cy="9.855" rx=".205" ry=".242" transform="rotate(45 18.647 9.855)" fill="#C49D7C"/><ellipse cx="9.134" cy="14.213" rx=".205" ry=".242" transform="rotate(45 9.134 14.213)" fill="#C49D7C"/><ellipse cx="10.449" cy="15.47" rx=".205" ry=".242" transform="rotate(45 10.449 15.47)" fill="#C49D7C"/><ellipse cx="9.243" cy="15.47" rx=".205" ry=".242" transform="rotate(45 9.243 15.47)" fill="#C49D7C"/><ellipse cx="10.557" cy="16.727" rx=".205" ry=".242" transform="rotate(45 10.557 16.727)" fill="#C49D7C"/><ellipse cx="6.703" cy="16.695" rx=".205" ry=".242" transform="rotate(45 6.703 16.695)" fill="#C49D7C"/><ellipse cx="8.018" cy="17.952" rx=".205" ry=".242" transform="rotate(45 8.018 17.952)" fill="#C49D7C"/><ellipse cx="6.812" cy="17.952" rx=".205" ry=".242" transform="rotate(45 6.812 17.952)" fill="#C49D7C"/><ellipse cx="8.126" cy="19.209" rx=".205" ry=".242" transform="rotate(45 8.126 19.209)" fill="#C49D7C"/><ellipse cx="7.973" cy="15.438" rx=".205" ry=".242" transform="rotate(45 7.973 15.438)" fill="#C49D7C"/><ellipse cx="9.287" cy="16.695" rx=".205" ry=".242" transform="rotate(45 9.287 16.695)" fill="#C49D7C"/><ellipse cx="8.081" cy="16.695" rx=".205" ry=".242" transform="rotate(45 8.081 16.695)" fill="#C49D7C"/><ellipse cx="9.396" cy="17.952" rx=".205" ry=".242" transform="rotate(45 9.396 17.952)" fill="#C49D7C"/><ellipse cx="10.531" cy="17.926" rx=".205" ry=".242" transform="rotate(45 10.531 17.926)" fill="#C49D7C"/><ellipse cx=".204" cy=".242" rx=".204" ry=".242" transform="scale(-1 1) rotate(45 -11.518 -6.83)" fill="#C49D7C"/><ellipse cx=".204" cy=".242" rx=".204" ry=".242" transform="scale(-1 1) rotate(45 -12.376 -4.621)" fill="#C49D7C"/><ellipse cx=".204" cy=".242" rx=".204" ry=".242" transform="scale(-1 1) rotate(45 -12.978 -6.073)" fill="#C49D7C"/><ellipse cx=".204" cy=".242" rx=".204" ry=".242" transform="scale(-1 1) rotate(45 -13.835 -3.864)" fill="#C49D7C"/><ellipse cx=".204" cy=".242" rx=".204" ry=".242" transform="scale(-1 1) rotate(45 -15.719 -8.52)" fill="#C49D7C"/><ellipse cx=".204" cy=".242" rx=".204" ry=".242" transform="scale(-1 1) rotate(45 -16.577 -6.31)" fill="#C49D7C"/><ellipse cx=".204" cy=".242" rx=".204" ry=".242" transform="scale(-1 1) rotate(45 -17.178 -7.762)" fill="#C49D7C"/><ellipse cx=".204" cy=".242" rx=".204" ry=".242" transform="scale(-1 1) rotate(45 -18.036 -5.553)" fill="#C49D7C"/><ellipse cx=".204" cy=".242" rx=".204" ry=".242" transform="scale(-1 1) rotate(45 -13.572 -7.618)" fill="#C49D7C"/><ellipse cx=".204" cy=".242" rx=".204" ry=".242" transform="scale(-1 1) rotate(45 -14.43 -5.408)" fill="#C49D7C"/><ellipse cx=".204" cy=".242" rx=".204" ry=".242" transform="scale(-1 1) rotate(45 -15.031 -6.86)" fill="#C49D7C"/><ellipse cx=".204" cy=".242" rx=".204" ry=".242" transform="scale(-1 1) rotate(45 -15.89 -4.651)" fill="#C49D7C"/><ellipse cx=".204" cy=".242" rx=".204" ry=".242" transform="scale(-1 1) rotate(45 -15.292 -3.296)" fill="#C49D7C"/><ellipse cx=".204" cy=".242" rx=".204" ry=".242" transform="scale(-1 1) rotate(45 -25.283 -12.577)" fill="#C49D7C"/><ellipse cx=".204" cy=".242" rx=".204" ry=".242" transform="scale(-1 1) rotate(45 -26.14 -10.367)" fill="#C49D7C"/><ellipse cx=".204" cy=".242" rx=".204" ry=".242" transform="scale(-1 1) rotate(45 -26.742 -11.819)" fill="#C49D7C"/><ellipse cx=".204" cy=".242" rx=".204" ry=".242" transform="scale(-1 1) rotate(45 -27.6 -9.61)" fill="#C49D7C"/><ellipse cx=".204" cy=".242" rx=".204" ry=".242" transform="scale(-1 1) rotate(45 -29.483 -14.266)" fill="#C49D7C"/><ellipse cx=".204" cy=".242" rx=".204" ry=".242" transform="scale(-1 1) rotate(45 -30.341 -12.056)" fill="#C49D7C"/><ellipse cx=".204" cy=".242" rx=".204" ry=".242" transform="scale(-1 1) rotate(45 -30.943 -13.508)" fill="#C49D7C"/><ellipse cx=".204" cy=".242" rx=".204" ry=".242" transform="scale(-1 1) rotate(45 -31.8 -11.299)" fill="#C49D7C"/><ellipse cx=".204" cy=".242" rx=".204" ry=".242" transform="scale(-1 1) rotate(45 -27.337 -13.364)" fill="#C49D7C"/><ellipse cx=".204" cy=".242" rx=".204" ry=".242" transform="scale(-1 1) rotate(45 -28.195 -11.154)" fill="#C49D7C"/><ellipse cx=".204" cy=".242" rx=".204" ry=".242" transform="scale(-1 1) rotate(45 -28.796 -12.606)" fill="#C49D7C"/><ellipse cx=".204" cy=".242" rx=".204" ry=".242" transform="scale(-1 1) rotate(45 -29.654 -10.397)" fill="#C49D7C"/><ellipse cx=".204" cy=".242" rx=".204" ry=".242" transform="scale(-1 1) rotate(45 -29.057 -9.042)" fill="#C49D7C"/><rect x="12.765" y="9.909" width="4.148" height="4.487" rx="2.074" transform="rotate(45 12.765 9.909)" fill="#D9D9D9"/></svg>