<svg width="25" height="25" fill="none" xmlns="http://www.w3.org/2000/svg"><path d="M8.583 7.458l.417.75h7.042l.291-.791c0-2.834-.666-4.042-3.791-4.084-3.167-.041-3.959 1.25-3.959 4.125z" fill="#594640"/><path d="M16.042 7.417c-.042.166-.042.333-.125.416-.084.167-.25.25-.25.25s.041-.333.041-.75c-.166-2.625-.333-1.375-3.208-1.375s-3.042-1.25-3.208 1.375c0 .459.041.75.041.75s-.166-.083-.25-.25c-.041-.083-.083-.25-.125-.416-.291-.084-.625 0-.625.791 0 .5.167.875.792.917.208 1.625 2.417 2.708 3.375 2.708 1 0 3.167-1.083 3.375-2.708.625-.042.792-.458.792-.917 0-.791-.334-.875-.625-.791z" fill="#FFE1BD"/><path d="M11 8.875a.625.625 0 100-1.25.625.625 0 000 1.25zm2.958 0a.625.625 0 100-1.25.625.625 0 000 1.25zm-.5 1.25c-.625.5-1.333.5-1.916 0-.084-.042-.125.042-.084.125.209.333.584.667 1.042.667.5 0 .875-.292 1.042-.667.083-.083 0-.208-.084-.125z" fill="#664E27"/><path d="M11.833 11.625V12c0 .208-.166.375-.333.458h-2v4.584s1.042.583 3.042.583c2 0 3.041-.583 3.041-.583v-4.584h-2.041c-.209-.041-.334-.25-.334-.458v-.375h-1.375zm7.834-8.542c-.709-.208-.959.25-1.125.625-.125.042-.25.125-.292.292l-.083.292c-.042.208.041.416.25.5h.041l-1.125 4.541 1.209.25 1.125-4.541c.25-.042.333-.292.541-1 .209-.75-.416-.917-.541-.959zM6.542 4.75c.208-.042.333-.292.25-.5l-.084-.292c-.041-.166-.166-.25-.291-.291-.125-.375-.417-.834-1.125-.625-.125.041-.75.208-.542.958.208.708.292.958.542 1l1.166 4.583 1.209-.25L6.542 4.75z" fill="#FFE1BD"/><path d="M1.458 5.583v-.75S5.125 2.958 12.5 2.958s11.042 1.875 11.042 1.875v.75S19.875 3.708 12.5 3.708 1.458 5.583 1.458 5.583z" fill="#94989B"/><path d="M18.708 3.917c.042-.125-.041-.209-.125-.25-.125-.042-.208.041-.25.166l-.125.5.375.084.125-.5z" fill="#FFE1BD"/><path d="M18.583 3.792c.042.041.042.083.042.166 0 .042 0 .125-.042.167-.041.083-.041.208-.083.292 0 .083.083.083.125.041.042-.083.042-.208.083-.291 0-.084.042-.125.042-.209a.319.319 0 00-.083-.208c-.042-.042-.125 0-.084.042z" fill="#E6B796"/><path d="M6.292 3.917c-.042-.125.041-.209.125-.25.125-.042.208.041.25.166l.125.5-.375.084-.125-.5z" fill="#FFE1BD"/><path d="M6.417 3.792c-.042.041-.042.083-.042.166 0 .042 0 .125.042.167.041.083.041.208.083.292 0 .083-.083.083-.125.041-.042-.083-.042-.208-.083-.291 0-.084-.042-.125-.042-.209 0-.083.042-.166.083-.208.042-.042.125 0 .084.042z" fill="#E6B796"/><path d="M22.875 8.333l-1.542-.583 2.125-5.917L25 2.417l-2.125 5.916z" fill="#3E4347"/><path d="M21.167 9L19 8.208 21.958 0l2.167.792L21.167 9zM2.125 8.333l1.542-.583-2.125-5.917L0 2.417l2.125 5.916z" fill="#3E4347"/><path d="M3.833 9L6 8.208 3.042 0 .875.792 3.833 9z" fill="#3E4347"/><path d="M18.542 9.583l-1.167-.5-2.333 3.334h-1.209c-.166.625-.708 1.083-1.333 1.083s-1.208-.458-1.333-1.083H9.958L7.625 9.083l-1.167.5L9.5 13.875v3.583s1.042.584 3.042.584c2 0 3.041-.584 3.041-.584v-3.583l2.959-4.292z" fill="#47B892"/><path d="M7.583 23.875c-.583 0-1.041.5-1.041 1.125h2.916v-1.125H7.583zm9.834 0c.583 0 1.041.5 1.041 1.125h-2.916v-1.125h1.875z" fill="#D3976E"/><path d="M16.542 19.292l-1-.75v-1.209s-1.042.625-3.042.625c-2 0-3.042-.625-3.042-.625v1.209l-1 .75c-.625.5-.875.916-.875 1.458v3.125h1.875v-2.458l1.584-1.25c.208-.167.458-.292.75-.292h1.416c.375 0 .792.333.792.333l1.542 1.209v2.458h1.875V20.75c0-.542-.25-1-.875-1.458z" fill="#3E4347"/></svg>