<svg width="25" height="26" fill="none" xmlns="http://www.w3.org/2000/svg"><path d="M12.16 18.127a3.66 3.66 0 00-3.66 3.659 3.66 3.66 0 003.66 3.66c2.02 0 3.659-1.67 3.659-3.69 0-1.99-1.64-3.63-3.66-3.63z" fill="#FF8736"/><path d="M21.064 1.718h3.48l-14.49 17.93-2.467-2.102L21.064 1.718z" fill="#3E4347"/><path d="M8.418 16.384a1.867 1.867 0 01.407 3.698l-5.96 1.162a2.371 2.371 0 11-.517-4.698l6.07-.162z" fill="#3E4347"/><path d="M15.511 13.013s.19-2.363.458-3.087c.876-2.477 6.136-8.118 6.136-8.118H21l-8.233 9.643c-.076 4.535-2.859 8.347-2.859 8.347.877-.42 5.603-6.785 5.603-6.785z" fill="#C7E755"/><path d="M12.767 11.45s-.724.877-1.296 1.563c.953 2.516-1.525 6.785-1.525 6.785s4.04-5.336 2.82-8.347z" fill="#83BF4F"/><path d="M12.16 18.127a3.66 3.66 0 00-3.66 3.659 3.66 3.66 0 003.66 3.66c2.02 0 3.659-1.67 3.659-3.69 0-1.99-1.64-3.63-3.66-3.63z" fill="#FF8736"/></svg>