<svg width="25" height="25" fill="none" xmlns="http://www.w3.org/2000/svg"><path d="M8.89 14.528c-2.29-.166-5.038-.707-7.702-1.332-.79-.166-1.707 3.914-.832 4.205 5.328 1.665 10.948 1.249 13.03.916.749-.125 1.29-1 1.332-1l3.33-5.578-1.915-1.207c-2.997 3.539-5.745 4.121-7.243 3.996z" fill="#3E4347"/><path d="M22.71 0s-5.87 9.7-6.619 10.532l1.915 1.207L25 0h-2.29z" fill="#ED4C5C"/><path d="M19.463 24.977c3.058 0 5.537-.931 5.537-2.081s-2.479-2.082-5.537-2.082-5.536.932-5.536 2.082 2.479 2.081 5.536 2.081z" fill="#3E4347"/><path d="M19.463 22.521c3.058 0 5.537-.932 5.537-2.081 0-1.15-2.479-2.082-5.537-2.082s-5.536.932-5.536 2.082 2.479 2.081 5.536 2.081z" fill="#3E4347"/><path d="M13.968 20.44H25v2.456H13.968V20.44z" fill="#3E4347"/><path opacity=".5" d="M19.463 22.521c3.058 0 5.537-.932 5.537-2.081 0-1.15-2.479-2.082-5.537-2.082s-5.536.932-5.536 2.082 2.479 2.081 5.536 2.081z" fill="#B2C1C0"/><path d="M2.978 13.571l-.666 4.538c3.539.79 6.952.707 9.242.5l.75-4.996c-1.374.75-2.582.916-3.373.874-1.79-.125-3.871-.458-5.953-.916z" fill="#E8E8E8"/><path d="M3.02 18.233l.624.125 1.166-4.412-.624-.125-1.166 4.412zm6.244.5h.666l1.499-4.704-.75.25-1.415 4.454zm-3.372-.125c.208 0 .417.042.625.042l.333-4.413c-.208-.042-.417-.042-.625-.083l-.333 4.454zm2.498-4.163l-.916 4.288H8.1l.957-4.246h-.125c-.166-.042-.333-.042-.541-.042z" fill="#B2C1C0"/></svg>