<svg width="25" height="25" fill="none" xmlns="http://www.w3.org/2000/svg"><path d="M24.458 21.125c0-14.333-3.291-17.958-3.291-17.958C16.125.625 15.083.5 12.833.458h-.666C9.917.5 8.875.625 3.792 3.167c0 0-3.292 3.625-3.292 17.958 0 0 1.625-.5 4.833 0 0 0-.333 1.25-1.208 2.958 0 0 3.417 1.125 8.042-.625 5.125 1.959 8.666.625 8.666.625-.875-1.708-1.208-2.958-1.208-2.958 3.208-.5 4.833 0 4.833 0z" fill="#fff"/><path d="M18.792 13.333s2.083-.458 3.541.292c0 0-2.208-.458-3.666.792l.125-1.084zm6.041 4.084s-1.583-.584-3.916 0c0 0 2.583-.042 4 1.166l-.084-1.166zm-5.375 1.666s1.292-.666 3-.5c0 0-1.666-.625-3.208-.375l.208.875z" fill="#3E4347"/><path d="M19.75 7.792l-.875 1.083s-.083-.5-.542-1.25c0 0 .459 2.042 0 4.708-.5 2.875-.125 8.667 1.834 11.959l.708-.917s-2.542-7.042-1.75-10.833c.625-3-.25-2.834.625-4.75zm-8.875 8.541s-2.125.875-4.125 4.792c0 0 .958.292 1.833.542 0 0 1.584-3.084 3.959-5.042l-1.667-.292z" fill="#3E4347"/><path d="M13.25 15.875s2.125.875 4.125 4.791c0 0-.958.292-1.833.542 0 0-1.584-3.083-3.959-5.041l1.667-.292zM6.958 1.667s.875 2.541 3.167 6c0 0-1.833-4.542-2.125-6.542l-1.042.542z" fill="#3E4347"/><path d="M11.958 14.792s-2.375 1.541-2.083 1.791c.292.25 1.792 1.834 2.083 1.625.292-.25 2.375-1.75 2.084-2-.334-.291-1.709-1.666-2.084-1.416zm-5.291-1.459s-2.084-.458-3.542.292c0 0 2.208-.458 3.667.792l-.125-1.084zM.625 17.417s1.583-.584 3.917 0c0 0-2.584-.042-4 1.166l.083-1.166zm5.417 1.666s-1.292-.666-3-.5c0 0 1.666-.625 3.208-.375l-.208.875z" fill="#3E4347"/><path d="M5.333 7.792l.875 1.083s.084-.5.542-1.25c0 0-.458 2.042 0 4.708.5 2.875.125 8.667-1.833 11.959l-.709-.917s2.542-7.042 1.75-10.833c-.583-3 .25-2.834-.625-4.75z" fill="#3E4347"/><path d="M6.333 15.791v1.167c6.834.834 12.167 0 12.167 0v-1.166c-7.375-.917-12.167 0-12.167 0zM18.167 1.667s-.875 2.541-3.167 6c0 0 1.833-4.542 2.125-6.542l1.042.542z" fill="#3E4347"/><path d="M9.667.708s1.125 4.667 3.083 8.209c0 0 2.417-5.667 2.583-8.209 0 0-3.208-.625-5.666 0z" fill="#D0D0D0"/><path d="M10.125 1.083S11.25 3.25 12.75 4.375c0 0 1.417-.958 2.208-3.208l-2.166 8.125-2.375-5.75-.292-2.459z" fill="#94989B"/><path d="M12.625 9.583C10.167 6.25 9.083 1.25 9.042 1.042l1.041-.167c0 .042 1.084 5.042 3.417 8.25l-.875.458z" fill="#3E4347"/><path d="M11.042 15.958l-1-.333c2.541-5.292 5-14.667 5-14.792l1.041.209c0 .083-2.458 9.541-5.041 14.916z" fill="#3E4347"/><path d="M17.667 25c-1.459 0-3.334-.25-5.5-1.042-4.667 1.667-8.084.584-8.25.542l-.5-.167.208-.416A17.188 17.188 0 004.667 21.5c-2.584-.333-3.959.042-3.959.083L0 21.792v-.625C0 6.833 3.25 3.042 3.375 2.917l.083-.084.084-.041C8.708.208 9.833.083 12.167 0h.708c2.292.042 3.458.167 8.625 2.792l.083.041.042.084C21.75 3.083 25 6.833 25 21.167v.625l-.708-.209s-1.375-.375-3.959-.041c.167.5.5 1.375 1.042 2.416l.208.417-.5.167c-.083 0-1.333.458-3.416.458zm-5.042-1.833c3.625 1.333 6.417.916 7.5.666-.708-1.5-1-2.541-1-2.583L19 20.792l.542-.084c2.083-.333 3.583-.25 4.375-.125-.084-12.5-2.709-16.5-3.125-17.041C15.75 1 14.833.958 12.833.917h-.625c-2 .041-2.958.083-8 2.625-.375.541-3.041 4.541-3.125 17.041.792-.125 2.292-.208 4.375.125l.542.084-.125.458c0 .042-.292 1.083-1 2.542 1.042.208 3.542.5 6.667-.584-.375-1.125-1.375-4.333-1.375-6.166h1.083c0 1.791 1.083 5.25 1.375 6.125z" fill="#3E4347"/></svg>