<svg width="25" height="22" fill="none" xmlns="http://www.w3.org/2000/svg"><path d="M2.325 1.324s.708-.917 3.834.5C8.62 2.95 1.824 6.16 1.158 4.827.74 4.034 2.325 1.324 2.325 1.324z" fill="#A8D600"/><path d="M20.832 11.703c-3.835-2.667-7.837-10.587-8.337-10.587-1.417 0-2.334.542-2.334.542l9.129 13.255c0 .041 2.042-2.876 1.542-3.21z" fill="#5B636B"/><path d="M22.707 12.954c-.583-.5-2.25-.834-2.709-1.292-1.75-1.918-5.419-5.294-8.545-11.005-1.125-2.125-6.336 1.584-6.336 1.584l9.087 14.464c.084 0 10.671-1.959 8.503-3.751z" fill="#333"/><path d="M14.538 15.788c.542-.458.5-2.96.041-3.585C11.745 8.12 7.077 1.95 5.243 1.95c-1.918 0-2.251 2.584-3.335 2.584-.917 0 .375-3.251.375-3.251C.533 3.242.241 9.494.241 9.494s7.42 12.213 14.297 6.294z" fill="#5B636B"/><path d="M.282 8.952S.115 7.327.824 5.16c.042 2.46 1.584 3.043 1.167 6.294l-1.709-2.5zm8.128 7.545c1.918-4.46 10.17.041 14.297-3.543.667.083 2.001 2.376 2.001 2.376s-1.5 6.002-16.298 1.167z" fill="#69727A"/><path d="M.282 8.744c-.417 0-.333 2.876 0 3.335 2.21 2.75 4.502 3.46 7.545 7.127C11.495 23.583 25 21.5 25 17.747c0-3.084-.375-2.792-.375-2.792-.959 2.5-9.504 3.042-12.63 2.376C5.117 15.913.741 8.744.282 8.744z" fill="#D0D0D0"/><path d="M5.326 4.117c.322 0 .583-.317.583-.708 0-.392-.26-.71-.583-.71-.322 0-.584.318-.584.71 0 .39.262.708.584.708zm1.667 1.918c.323 0 .584-.318.584-.71 0-.39-.261-.708-.584-.708-.322 0-.583.318-.583.709 0 .391.26.709.583.709zm1.501 1.834c.322 0 .583-.318.583-.71 0-.39-.261-.708-.583-.708-.323 0-.584.318-.584.709 0 .391.261.709.584.709zm1.542 2.292c.322 0 .584-.317.584-.709 0-.39-.262-.708-.584-.708-.322 0-.583.317-.583.708 0 .392.26.71.583.71zm1.459 1.751c.322 0 .584-.318.584-.709 0-.391-.262-.708-.584-.708-.322 0-.584.317-.584.708 0 .392.262.709.584.709zm1.542 2.042c.322 0 .584-.317.584-.708 0-.392-.261-.709-.584-.709-.322 0-.583.317-.583.709 0 .391.26.708.583.708z" fill="#333"/><path d="M13.037 13.746a.45.45 0 01-.292-.125.565.565 0 010-.709c.084-.125 2.335-2.75 6.586-2.75.209 0 .417.207.417.5 0 .25-.167.5-.417.5-3.918 0-6.002 2.459-6.044 2.459-.042.083-.125.125-.25.125zm-1.5-2.043c-.084 0-.167-.041-.25-.125a.566.566 0 01-.084-.667c.083-.125 1.834-2.75 6.753-2.75.208 0 .416.208.416.5 0 .25-.166.5-.416.5-4.46 0-6.086 2.376-6.128 2.376a.351.351 0 01-.291.166zm-1.46-1.75a.45.45 0 01-.291-.125c-.167-.167-.167-.5-.042-.709 2-2.668 6.711-2.71 6.92-2.71.208 0 .416.21.416.5 0 .251-.166.501-.417.501-.041 0-4.543.042-6.335 2.376-.042.125-.167.167-.25.167zM8.536 7.618c-.125 0-.25-.083-.333-.208-.125-.208-.083-.542.083-.667.084-.083 2.501-2.209 7.003-2.209.208 0 .417.208.417.5 0 .292-.167.5-.417.5-4.21 0-6.503 2.001-6.503 2.043-.083.041-.166.041-.25.041zm-1.5-1.792c-.125 0-.25-.083-.334-.167a.574.574 0 01.084-.708C6.868 4.867 9.16 2.7 14.079 2.7c.208 0 .417.208.417.5 0 .25-.167.5-.417.5-4.627 0-6.752 2.043-6.794 2.043-.083.041-.167.083-.25.083z" fill="#A8D600"/></svg>