<svg width="25" height="25" fill="none" xmlns="http://www.w3.org/2000/svg"><path d="M12.503 24.667c6.731 0 12.188-5.457 12.188-12.188C24.69 5.748 19.234.291 12.503.291 5.772.291.315 5.748.315 12.48c0 6.731 5.457 12.188 12.188 12.188z" fill="#fff"/><path d="M24.94 12.48c0-.292.084-4.535-2.412-7.28-.125-.25-.624-1.248-2.33-2.455-1.123-.873-2.288-1.497-2.412-1.58C17.66 1.082 15.58 0 13.086 0c-.209 0-.375 0-.583.042-1.914-.042-3.66.457-4.95 1.04-1.331.582-2.205 1.164-2.288 1.247C3.85 3.12 1.147 6.281.939 7.987c-.874 1.081-1.581 6.031 0 9.026 1.123 4.16 5.283 6.24 5.615 6.406.208.125 2.455 1.54 5.242 1.54h.374c.25.041.458.041.707.041 2.995 0 7.488-2.122 8.403-3.785 2.579-1.914 3.91-6.74 3.66-8.736zM6.596 18.76c-1.206-1.913-1.872-4.45-2.038-5.033.374-.582 2.246-3.328 3.286-4.16.582.125 3.12.583 5.49.999.292.79 1.623 4.16 1.997 5.49-.416.5-2.038 2.372-3.619 3.828-1.705.041-4.575-.957-5.116-1.124zM21.57 5.241c0 .167-.042.832-.374 1.623-.624-.333-2.205-.999-4.41-1.124-.332-.499-1.58-2.204-3.535-3.369.25-.54.623-1.165.873-1.373.083 0 .166-.041.333-.041 1.04 0 2.87.707 3.036.748.167.084 3.453 1.83 4.077 3.536zM4.1 13.311c-1.415-.25-2.289-.665-2.538-.832-.541-1.913-.084-3.993-.042-4.284.54-.915 1.997-3.328 2.995-3.786.998-.208 2.288.042 2.787.167-.041.665-.125 2.537.125 4.534-1.082.915-2.87 3.536-3.328 4.201zM12.377.624c.333.042.79.083 1.123.208a6.012 6.012 0 00-.79 1.373c-.666.124-3.12.582-5.075 1.83-.374-.083-1.58-.374-2.704-.291.291-.541.707-.915.749-.957.125-.125 3.078-2.205 6.697-2.163zm7.945 15.848c-.5 0-2.371-.124-4.41-.623-.374-1.373-1.705-4.742-1.996-5.533 1.29-1.83 2.537-3.536 2.87-4.035 2.371.167 4.035 1.04 4.368 1.207 1.373 2.204 1.664 4.45 1.705 4.825-.748 2.288-2.162 3.827-2.537 4.16zM.731 11.024c.041.541.125 1.082.29 1.623-.124.374-.249.748-.29 1.123-.125-.957-.125-1.914 0-2.746zm6.156 11.855c-1.04-.499-1.83-1.663-2.163-2.12.624-.625 1.414-1.207 1.706-1.415.665.25 3.452 1.165 5.24 1.165.292.416 1.29 1.663 2.497 2.662-.75.748-1.83 1.081-2.039 1.164-2.828.084-5.24-1.456-5.24-1.456zm6.78 1.415c.375-.208.79-.5 1.124-.874.54-.083 2.87-.457 4.95-1.996.125 0 .374.041.624.041-1.29 1.207-4.368 2.58-6.697 2.829zm6.406-3.494c.75-1.955.708-3.453.666-3.91a11.401 11.401 0 002.62-4.202c.417.083.708.167.833.25.041.166.124.54.083 1.123-.333 2.08-1.415 5.241-3.37 6.614-.207.125-.54.166-.832.125z" fill="#4A4E51"/></svg>