<svg width="25" height="25" fill="none" xmlns="http://www.w3.org/2000/svg"><path d="M12.5 25C19.404 25 25 19.404 25 12.5S19.404 0 12.5 0 0 5.596 0 12.5 5.596 25 12.5 25z" fill="#FFF500"/><path d="M11 6.667a13.078 13.078 0 01.375-3.5c6.042.125 10.5 2.958 12.708 4.708-.208-.5-.458-1-.708-1.5-2.5-1.75-6.583-3.833-11.792-4C11.875 1.333 12.25.542 12.5 0h-.042c-.291 0-.583 0-.875.042-1 2.166-2.833 7.5.417 12.5-.833 1.666-2 2.875-3.208 3.75C4.625 8.667 6.5 2.792 7.125 1.208c-.375.167-.708.375-1.042.584C5.292 4.25 4.292 9.75 8.167 16.75a12.85 12.85 0 01-3.25 1.417C2 12.875 2.208 7.583 2.625 4.792a11.36 11.36 0 00-.958 1.375c-.167 3.041.041 7.583 2.5 12.208-1.042.25-1.959.333-2.5.375.166.25.291.5.458.75 2.375-.208 7.917-1.292 10.625-6.583 1.875-.084 3.5.291 4.875.916-4.5 7.417-10.542 8.75-12.208 8.959l1 .625c2.5-.542 7.791-2.417 11.916-9.292a11.611 11.611 0 012.834 2.083c-3.125 5.167-7.792 7.625-10.459 8.667.542.083 1.084.125 1.667.125 2.75-1.292 6.625-3.792 9.333-8.208.75.791 1.25 1.5 1.584 2 .166-.25.291-.5.416-.792-1.375-1.958-5.083-6.208-11-5.917a10.74 10.74 0 01-1.666-4.666c8.708.166 12.833 4.708 13.916 6.083.042-.333.042-.667.042-1v-.208c-1.708-1.917-6-5.5-14-5.625z" fill="#2B62F0"/></svg>