<svg width="25" height="25" fill="none" xmlns="http://www.w3.org/2000/svg"><path d="M12.5 25C19.404 25 25 19.404 25 12.5S19.404 0 12.5 0 0 5.596 0 12.5 5.596 25 12.5 25z" fill="#FF8736"/><path d="M3.625 3.75c.25 1.062.688 2 1.188 2.937a39.43 39.43 0 001.625 2.75c1.187 1.75 2.437 3.5 3.812 5.125s2.813 3.188 4.375 4.625c.813.688 1.625 1.375 2.5 1.938C18 21.75 18.938 22.187 20 22.5c-1.063-.063-2.125-.5-3.125-1s-1.875-1.125-2.75-1.813A35.473 35.473 0 019.5 15.125c-1.375-1.688-2.625-3.438-3.688-5.375-.5-.875-1-1.875-1.437-2.875-.375-1-.688-2.063-.75-3.125zM0 12.187c.75 1.563 1.688 3 2.813 4.188a13.424 13.424 0 004.124 2.812c1.5.688 3.188 1.188 4.75 1.875.813.375 1.626.75 2.313 1.375.688.563 1.188 1.438 1.313 2.25-.313-.812-.876-1.437-1.563-1.875-.688-.437-1.5-.75-2.313-1-1.624-.562-3.312-1-4.937-1.75-1.625-.75-3.125-1.75-4.25-3.125A11.878 11.878 0 010 12.187zm22.563 7.75c-1 .438-2.188.625-3.313.125s-1.75-1.625-2.188-2.625c-.875-2.125-1.187-4.312-1.625-6.437C15 8.875 14.5 6.75 13.563 4.875 12.624 3 11.063 1.312 9 .562c1.063.25 2.125.75 3 1.438.875.687 1.625 1.625 2.188 2.562 1.124 1.938 1.687 4.188 2.187 6.313l.625 3.25c.188 1.062.438 2.125.813 3.125.375 1 .812 1.937 1.687 2.5.813.5 2 .437 3.063.187z" fill="#231F20"/><path d="M19.75 2.312c.563.375 1 .938 1.313 1.563.312.625.625 1.25.812 1.937.438 1.313.625 2.688.688 4.125.125 2.75-.563 5.688-2.125 8.063a11.413 11.413 0 01-3 3 11.265 11.265 0 01-3.875 1.687c-2.688.688-5.563.625-8.25.188 2.75.062 5.5-.063 8-.875 2.562-.813 4.812-2.313 6.25-4.5 1.5-2.188 2.125-4.875 2.187-7.5 0-1.313-.125-2.688-.375-4-.25-1.375-.625-2.75-1.625-3.688z" fill="#231F20"/></svg>