<svg width="25" height="25" fill="none" xmlns="http://www.w3.org/2000/svg"><path d="M18.392 1.43c6.043 3.153 8.408 10.51 5.123 16.422-3.284 5.911-10.772 8.145-16.815 4.992C.657 19.69-1.708 12.334 1.576 6.422 4.73.511 12.217-1.723 18.392 1.43z" fill="#FFCE31"/><path d="M21.545 3.795C15.108 4.583 10.64 6.948 8.933 8.13c-.394-.657-.657-1.313-.92-2.233.92-.92 3.81-3.547 9.46-4.86C16.29.51 15.107.247 13.924.116c-3.021 1.05-5.123 2.496-6.305 3.547 0-.789 0-1.708.13-2.76-.787.264-1.444.658-2.101 1.052-.526 7.357 4.204 10.116 5.912 10.904 0 .525.131 1.445-.263 2.627-1.84-.788-6.306-3.284-9.984-8.802C.92 7.342.657 8.13.394 8.787c3.81 5.255 8.276 7.62 10.247 8.54-.394.656-.788 1.313-1.445 1.838C7.882 18.904 4.073 17.59 0 13.123c.131 1.183.394 2.365.788 3.547 2.628 2.234 4.992 3.416 6.569 3.942-.657.525-1.577.92-2.496 1.313.525.394 1.05.788 1.708 1.051.13 0 .262.132.394.132 6.568-3.285 6.7-8.67 6.568-10.51.394-.263 1.183-.788 2.233-1.051 0 2.102-.13 7.094-2.627 12.874.788 0 1.577-.131 2.233-.262 2.365-5.912 2.365-10.773 2.365-12.875.788 0 1.576 0 2.365.263.394 1.182 1.182 4.992-.526 10.641.92-.657 1.84-1.445 2.628-2.365a20.57 20.57 0 00.131-7.488c.788.394 1.577.92 2.496 1.577.131-.789.131-1.577.131-2.365-6.174-4.204-11.035-1.576-12.611-.525-.526-.263-1.314-.657-2.102-1.446 1.708-1.05 6.306-3.415 12.743-3.94-.394-.658-.92-1.183-1.445-1.84z" fill="#F2B200"/></svg>