<svg width="26" height="25" fill="none" xmlns="http://www.w3.org/2000/svg"><path d="M6.309 1.762C.239 5.286-1.718 12.725 1.61 18.793c3.524 5.873 11.159 8.027 17.227 4.503 6.07-3.524 8.027-10.963 4.699-17.031C20.012.392 12.18-1.762 6.309 1.762z" fill="#B5DE24"/><path d="M6.7 1.566c.587.783 1.566 1.762 2.936 2.74 5.286 4.503 6.07 3.525 7.048 2.35C17.663 5.48 18.446 4.503 13.16 0 10.811 0 8.658.392 6.7 1.566zM8.07 24.08c.392-.979.783-2.35 1.175-4.503 1.175-6.851 0-7.047-1.566-7.243-1.566-.196-2.74-.587-3.915 6.264-.196.784-.196 1.567-.392 2.35 1.37 1.37 2.937 2.545 4.698 3.132zm17.032-12.725c-.979.196-2.154.588-3.524 1.175-6.46 2.349-6.069 3.524-5.481 4.894.587 1.37.979 2.545 7.439.196.195 0 .391-.196.783-.196.587-1.958.979-4.111.783-6.069z" fill="#ED4C5C"/></svg>