<svg width="25" height="25" fill="none" xmlns="http://www.w3.org/2000/svg"><path d="M.332 15.947c-.874 4.872.167 6.954.958 7.745.79.791 2.914 1.832 7.745.957-1.79-.957-3.456-2.206-4.997-3.705a21.316 21.316 0 01-3.706-4.997zm24.276-6.87c.874-4.83.125-7.246-.667-8.037-.79-.791-3.206-1.499-8.036-.666 1.79.958 3.456 2.207 4.997 3.706 1.499 1.54 2.748 3.206 3.706 4.997zM11.99 1.415c-2.332.833-4.664 2.124-6.62 4.039-1.916 1.957-3.207 4.289-4.04 6.62.791 2.54 2.332 4.997 4.456 7.12 2.123 2.124 4.58 3.665 7.12 4.456 2.332-.833 4.664-2.123 6.62-4.039 1.958-1.957 3.207-4.247 4.04-6.62-.791-2.54-2.332-4.997-4.456-7.12-2.082-2.166-4.58-3.665-7.12-4.456z" fill="#89664C"/><path d="M1.331 12.075a27.21 27.21 0 00-1.04 3.914c.957 1.79 2.206 3.456 3.705 4.996a21.315 21.315 0 004.997 3.706 21.037 21.037 0 003.914-1.04c-2.54-.792-5.038-2.333-7.12-4.456-2.124-2.124-3.664-4.58-4.456-7.12zm19.57-7.995A21.316 21.316 0 0015.906.374c-1.25.208-2.582.541-3.914 1.041 2.54.791 5.038 2.29 7.162 4.414 2.123 2.123 3.664 4.58 4.455 7.12.458-1.29.791-2.623 1.041-3.914a24.642 24.642 0 00-3.747-4.955zm-5.994 3.33l2.623 2.623c.416.417 1.083-.25.666-.666l-2.623-2.623c-.416-.417-1.083.25-.666.666zm-1.958 2l2.623 2.623c.416.416 1.083-.25.666-.666l-2.623-2.624c-.458-.416-1.083.25-.666.667zm-1.999 1.957l2.623 2.623c.417.416 1.083-.25.666-.666L11.616 10.7c-.416-.417-1.082.25-.666.666zm-1.957 1.998l2.623 2.624c.417.416 1.083-.25.667-.667L9.659 12.7c-.458-.416-1.124.25-.666.666zm-1.999 1.957l2.624 2.624c.416.416 1.082-.25.666-.667L7.66 14.656c-.417-.416-1.083.25-.667.666z" fill="#fff"/><path d="M8.077 17.57l9.743-9.743c.417-.416-.25-1.082-.666-.666l-9.743 9.744c-.417.458.208 1.124.666.666z" fill="#fff"/></svg>