<svg width="25" height="29" fill="none" xmlns="http://www.w3.org/2000/svg"><path d="M24.553 11.67s-1.447 1.35-3.906 2.941c-.675-3.905-2.556-8.728-6.22-14.611 0 0-1.206 6.317-5.209 12.249-1.736-2.7-2.507-4.823-2.507-4.823-12.538 12.586-2.122 21.508 4.436 21.508 8.391 0 15.77-4.051 13.406-17.264z" fill="#FF9D33"/><path d="M19.586 22.858c.724-1.592 1.254-3.665 1.35-6.27 0 0-1.012.869-2.748 1.978-.482-2.604-1.785-5.787-4.34-9.741 0 0-.82 4.195-3.617 8.198-1.206-1.785-1.736-3.231-1.736-3.231-2.074 3.279-2.893 5.883-2.942 7.957a28.694 28.694 0 01-1.88-.772c1.977 5.883 6.076 7.185 7.908 7.185 3.28 0 6.607-.964 9.886-5.642 0-.048-.723.145-1.88.338z" fill="#FFCE31"/><path d="M7.627 20.205s1.35 1.833 2.363 1.399c0 0 1.929-3.038 4.726-4.726 0 0-.58 4.63.096 5.45.868 1.108 3.231-1.206 3.231-1.206 0 2.748-2.99 6.172-5.69 6.172-2.604 0-6.366-2.99-4.726-7.089z" fill="#FFDF85"/><path d="M21.081 7.764c1.013-1.447 1.688-2.99 1.688-2.99 1.688 2.797.675 4.485-.048 5.015-1.013.772-2.797-.337-1.64-2.025zM2.66 7.282c-1.013-1.688-1.11-3.81-1.11-3.81C-.86 7.09.057 9.114.877 9.692c1.06.82 2.893-.433 1.784-2.41zM8.254 3.52c.144-1.157-.338-2.314-.338-2.314 2.267 1.494 2.267 2.748 1.977 3.279-.434.627-1.784.337-1.64-.965z" fill="#FF9D33"/></svg>